<?xml version="1.0" encoding="UTF-8"?>
<svg width="114px" height="28px" viewBox="0 0 114 28" version="1.1" xmlns="http://www.w3.org/2000/svg" xmlns:xlink="http://www.w3.org/1999/xlink">
    <!-- Generator: Sketch 48.2 (47327) - http://www.bohemiancoding.com/sketch -->
    <title>SN_VECTOR_LOGO</title>
    <desc>Created with Sketch.</desc>
    <defs>
        <polygon id="path-1" points="0 43 124 43 124 0 0 0"></polygon>
    </defs>
    <g id="header" stroke="none" stroke-width="1" fill="none" fill-rule="evenodd" transform="translate(-107.000000, -15.000000)">
        <g id="SN_VECTOR_LOGO" transform="translate(100.000000, 7.000000)">
            <path d="M11.3172465,21 C9.71406561,21 8.05475483,20.0726055 7,18.4662072 L8.09690746,17.257273 C8.64538881,18.0355942 9.67196823,19.1948373 11.3172465,19.1948373 C12.8640767,19.1948373 14.4250497,18.4992914 14.4250497,16.9591912 C14.4250497,15.0712532 12.8359565,15.0712532 11.3172465,15.0712532 C8.81405456,15.0712532 7.45003315,13.978373 7.45003315,11.8751285 C7.45003315,9.87133105 9.06724654,8 11.3172465,8 C12.9062845,8 14.2843936,8.52993044 15.5359344,9.95410633 L14.5797383,11.2789649 C13.4547106,10.2024322 12.653203,9.82163994 11.3172465,9.82163994 C10.1359786,9.82163994 9.15166229,10.7821186 9.15166229,11.8586513 C9.15166229,12.6037585 9.60164019,13.2828272 11.3875746,13.2828272 C15.0578916,13.2828272 16,14.624098 16,16.9591912 C16,19.443228 13.9750166,21 11.3172465,21" id="Fill-1" fill="#000000"></path>
            <path d="M23.4944193,12.261171 C21.6338839,12.261171 20.1992597,13.625377 20.1992597,15.5515758 C20.1992597,17.3975067 21.7571182,18.7503292 23.505638,18.7503292 C25.298861,18.7503292 26.7895216,17.3287389 26.7895216,15.4713078 C26.7895216,13.5909931 25.2764807,12.261171 23.4944193,12.261171 M23.4944193,20 C20.9613895,20 19,17.9822081 19,15.40254 C19,12.8802563 21.1071186,11 23.505638,11 C25.9825741,11 28,12.983408 28,15.5400756 C28,18.0624761 25.9153189,20 23.4944193,20" id="Fill-3" fill="#000000"></path>
            <path d="M37.0141418,13.2930818 C36.4022337,12.6509418 35.5071143,12.2612212 34.5439407,12.2612212 C32.6629052,12.2612212 31.2124737,13.6254184 31.2124737,15.5516047 C31.2124737,17.3975235 32.7874974,18.7503373 34.5552831,18.7503373 C35.654449,18.7503373 36.6289649,18.234407 37.2408151,17.4088486 L38,18.4522092 C37.1501342,19.4153024 35.9037492,20 34.5439407,20 C31.9830588,20 30,17.9822212 30,15.4025699 C30,12.8803025 32.1303357,11 34.5552831,11 C35.8243528,11 36.9802305,11.5159303 37.8074116,12.3528721 L37.0141418,13.2930818 Z" id="Fill-5" fill="#000000"></path>
            <mask id="mask-2" fill="white">
                <use xlink:href="#path-1"></use>
            </mask>
            <g id="Clip-8"></g>
            <polygon id="Fill-7" fill="#000000" mask="url(#mask-2)" points="39 20 40 20 40 11 39 11"></polygon>
            <path d="M45.3408667,18.6850019 L51,18.6850019 L51,20 L44,20 L44,11 L50.4586774,11 L50.4586774,12.3271609 L45.3408667,12.3271609 L45.3408667,15.0535997 C45.8945035,14.7399462 46.4727687,14.7037649 47.0755367,14.7037649 L49.0808053,14.7037649 L49.0808053,16.0428429 L47.0755367,16.0428429 C46.4850201,16.0428429 45.8945035,16.103227 45.3408667,16.3927392 L45.3408667,18.6850019 Z" id="Fill-9" fill="#000000" mask="url(#mask-2)"></path>
            <path d="M55.6311692,18.6850019 L57.7090293,18.6850019 C59.4917745,18.6850019 60.6474947,17.2373799 60.6474947,15.5603227 C60.6474947,13.8230657 59.5778601,12.3271609 57.6844154,12.3271609 L55.6311692,12.3271609 L55.6311692,18.6850019 Z M53,11 L57.6721085,11 C60.1680899,11 62,13.026892 62,15.4638801 C62,16.6823127 61.4836117,17.9249481 60.6352505,18.8056473 C59.7991335,19.6863465 58.9262841,20 57.7090293,20 L54.3155846,20 L54.3155846,12.3271609 L53.5901042,12.3271609 L53,11 Z" id="Fill-10" fill="#000000" mask="url(#mask-2)"></path>
            <path d="M68.3981398,17.40311 L66.4703751,13.6680128 L64.5191158,17.9011512 C64.8384369,17.6283727 65.5597028,17.40311 66.7661412,17.40311 L68.3981398,17.40311 Z M65.3350849,11 L66.7542429,11 L71,20 L69.5571662,20 L68.9775926,18.7074719 L66.2930483,18.7074719 C64.6846651,18.7074719 63.8213444,19.2174071 63.6202211,19.5849758 L63.3956031,20 L62,20 L65.8198949,12.0908725 L65.3350849,11 Z" id="Fill-11" fill="#000000" mask="url(#mask-2)"></path>
            <path d="M73.6311064,18.6850019 L75.7090293,18.6850019 C77.4918372,18.6850019 78.6475575,17.2373799 78.6475575,15.5603227 C78.6475575,13.8230657 77.5778601,12.3271609 75.6844154,12.3271609 L73.6311064,12.3271609 L73.6311064,18.6850019 Z M71,11 L75.6722341,11 C78.1680899,11 80,13.026892 80,15.4638801 C80,16.6823127 79.4836117,17.9249481 78.6352505,18.8056473 C77.7991963,19.6863465 76.9262841,20 75.7090293,20 L72.3156474,20 L72.3156474,12.3271609 L71.590167,12.3271609 L71,11 Z" id="Fill-12" fill="#000000" mask="url(#mask-2)"></path>
            <polygon id="Fill-13" fill="#000000" mask="url(#mask-2)" points="12 23 14.3177767 23 22.1917596 32.9329087 22.1917596 23 24 23 24 36 22.2246308 36 15.1890257 27.0603753 15.1890257 36 13.4301244 36 13.4301244 24.829838"></polygon>
            <path d="M30.4944074,25.261171 C28.633893,25.261171 27.1993304,26.625377 27.1993304,28.5515758 C27.1993304,30.3975067 28.7572159,31.7503292 30.5055926,31.7503292 C32.2988244,31.7503292 33.7894844,30.3287389 33.7894844,28.4713078 C33.7894844,26.5909931 32.2763969,25.261171 30.4944074,25.261171 M30.4944074,33 C27.9614097,33 26,30.9822081 26,28.40254 C26,25.8802563 28.107103,24 30.5055926,24 C32.98255,24 35,25.983408 35,28.5400756 C35,31.0624761 32.9152675,33 30.4944074,33" id="Fill-14" fill="#000000" mask="url(#mask-2)"></path>
            <polygon id="Fill-15" fill="#000000" mask="url(#mask-2)" points="40.686638 25.3270995 40.686638 33 39.3512092 33 39.3512092 25.3270995 36 25.3270995 36 24 44 24 44 25.3270995"></polygon>
            <polygon id="Fill-16" fill="#000000" mask="url(#mask-2)" points="46 33 47 33 47 24 46 24"></polygon>
            <path d="M57.0142511,26.2930818 C56.4023194,25.6509418 55.5071544,25.2612212 54.5439649,25.2612212 C52.6629356,25.2612212 51.2125548,26.6254184 51.2125548,28.5516047 C51.2125548,30.3975235 52.7876183,31.7503373 54.5552735,31.7503373 C55.6544542,31.7503373 56.6289522,31.234407 57.2408262,30.4088486 L58,31.4522092 C57.1501846,32.4153024 55.9037618,33 54.5439649,33 C51.9830372,33 50,30.9822212 50,28.4025115 C50,25.8803025 52.1303946,24 54.5552735,24 C55.8243711,24 56.9802677,24.5159303 57.8074083,25.3528721 L57.0142511,26.2930818 Z" id="Fill-17" fill="#000000" mask="url(#mask-2)"></path>
            <polygon id="Fill-18" fill="#000000" mask="url(#mask-2)" points="61 33 62 33 62 24 61 24"></polygon>
            <path d="M69.3981788,30.40311 L67.4704332,26.6680128 L65.5190221,30.9011512 C65.8384161,30.6283727 66.5598228,30.40311 67.7661015,30.40311 L69.3981788,30.40311 Z M66.335151,24 L67.7542386,24 L72,33 L70.5571264,33 L69.9775924,31.7074719 L67.2929719,31.7074719 C65.6846204,31.7074719 64.8213411,32.2174071 64.6202144,32.5849758 L64.3955426,33 L63,33 L66.820023,25.0908725 L66.335151,24 Z" id="Fill-19" fill="#000000" mask="url(#mask-2)"></path>
            <path d="M76.8375101,33 C75.4125257,33 73.9375786,32.3578601 73,31.245732 L73.9750664,30.4088486 C74.4626633,30.9477791 75.3750378,31.7503373 76.8375101,31.7503373 C78.212532,31.7503373 79.599965,31.2687907 79.599965,30.2025465 C79.599965,28.8955582 78.1876462,28.8955582 76.8375101,28.8955582 C74.6125511,28.8955582 73.4000191,28.1388255 73.4000191,26.6828023 C73.4000191,25.2956049 74.8374783,24 76.8375101,24 C78.2500199,24 79.4751539,24.3668954 80.5876335,25.3528137 L79.737569,26.2700231 C78.7376168,25.5247905 78.0250927,25.2612212 76.8375101,25.2612212 C75.7876589,25.2612212 74.912645,25.9261863 74.912645,26.6713022 C74.912645,27.1872324 75.3126641,27.6572789 76.9000748,27.6572789 C80.1625376,27.6572789 81,28.5859884 81,30.2025465 C81,31.9222557 79.2000095,33 76.8375101,33" id="Fill-20" fill="#000000" mask="url(#mask-2)"></path>
            <polygon id="Fill-21" fill="#DD0303" mask="url(#mask-2)" points="85 19 96 19 96 11 85 11"></polygon>
            <path d="M85.2657479,27.8922945 L90.347306,27.8922945 C90.347306,28.5923334 90.1760183,29.2250144 89.8335091,29.7903375 C89.4908673,30.3557949 88.9672598,30.8942554 88.2634158,31.405719 C87.5585111,31.917317 86.5593547,32.3522894 85.2657479,32.7115093 L85.2657479,35 C87.7396094,34.4972667 89.7567478,33.8330222 91.3181574,33.0076693 C92.8784402,32.1819134 94.048818,31.2753012 94.8295559,30.288437 C95.3325479,29.6515251 95.8212217,28.8275825 96,27.8172135 L96,25.980753 L96,22.8576417 L96,20 L85,20 L85,27.8172135 L85,27.8922945 L85.2657479,27.8922945" id="Fill-22" fill="#DD0303" mask="url(#mask-2)"></path>
            <polygon id="Fill-23" fill="#A20057" mask="url(#mask-2)" points="98 19 109 19 109 11 98 11"></polygon>
            <polygon id="Fill-24" fill="#7C0050" mask="url(#mask-2)" points="110 19 121 19 121 11 110 11"></polygon>
            <path d="M98.2656832,27.8922945 L103.347272,27.8922945 C103.347272,28.5923334 103.175983,29.2250144 102.833472,29.7903375 C102.490828,30.3557949 101.967217,30.8942554 101.263369,31.405719 C100.55846,31.917317 99.5592978,32.3522894 98.2656832,32.7115093 L98.2656832,35 C100.73956,34.4972667 102.75671,33.8330222 104.318129,33.0076693 C105.878421,32.1819134 107.048806,31.2753012 107.829549,30.288437 C108.332544,29.6515251 108.821221,28.8275825 109,27.8172135 L109,25.980753 L109,22.8576417 L109,20 L98,20 L98,27.8172135 L98,27.8922945 L98.2656832,27.8922945" id="Fill-25" fill="#A20057" mask="url(#mask-2)"></path>
            <path d="M110.265749,27.8922945 L115.347338,27.8922945 C115.347338,28.5923334 115.175983,29.2250144 114.833472,29.7903375 C114.490828,30.3557949 113.967217,30.8942554 113.263435,31.405719 C112.558526,31.917317 111.559298,32.3522894 110.265749,32.7115093 L110.265749,35 C112.739626,34.4972667 114.75671,33.8330222 116.318129,33.0076693 C117.878488,32.1819134 119.048806,31.2753012 119.829615,30.288437 C120.33261,29.6515251 120.821221,28.8275825 121,27.8172135 L121,25.980753 L121,22.8576417 L121,20 L110,20 L110,27.8172135 L110,27.8922945 L110.265749,27.8922945" id="Fill-26" fill="#7C0050" mask="url(#mask-2)"></path>
        </g>
    </g>
</svg>